<?xml version="1.0" encoding="UTF-8" standalone="no"?>
<!-- Created with Inkscape (http://www.inkscape.org/) -->

<svg
   width="150mm"
   height="150mm"
   viewBox="0 0 150 150"
   version="1.1"
   id="svg1"
   xml:space="preserve"
   inkscape:version="1.4.2 (2aeb623e1d, 2025-05-12)"
   sodipodi:docname="logofont.svg"
   xmlns:inkscape="http://www.inkscape.org/namespaces/inkscape"
   xmlns:sodipodi="http://sodipodi.sourceforge.net/DTD/sodipodi-0.dtd"
   xmlns="http://www.w3.org/2000/svg"
   xmlns:svg="http://www.w3.org/2000/svg"><sodipodi:namedview
     id="namedview1"
     pagecolor="#ffffff"
     bordercolor="#000000"
     borderopacity="0.25"
     inkscape:showpageshadow="2"
     inkscape:pageopacity="0.0"
     inkscape:pagecheckerboard="0"
     inkscape:deskcolor="#d1d1d1"
     inkscape:document-units="mm"
     inkscape:zoom="1.4142136"
     inkscape:cx="226.62772"
     inkscape:cy="300.52038"
     inkscape:window-width="1850"
     inkscape:window-height="1080"
     inkscape:window-x="20"
     inkscape:window-y="20"
     inkscape:window-maximized="0"
     inkscape:current-layer="layer1" /><defs
     id="defs1" /><g
     inkscape:label="Layer 1"
     inkscape:groupmode="layer"
     id="layer1"><path
       style="display:none;fill:#000000;fill-opacity:1;fill-rule:evenodd;stroke:#000000;stroke-width:0.423;stroke-linejoin:bevel;stroke-miterlimit:0;stroke-opacity:0"
       d="M 7.4153799,0.15456325 20.138014,135.21238 75.844465,150.11974 131.02785,134.68931 143.31989,0 7.2884627,0.06073652 33.214646,28.245525 117.68969,27.460927 116.38203,44.199016 51.521931,44.460548 53.35266,61.46017 114.5513,61.198638 110.62831,112.1975 75.582933,121.08961 40.537561,111.67444 38.183767,86.04424 55.183388,85.782707 56.491052,99.120871 75.3214,104.08999 94.936348,98.597806 96.244012,77.936727 37.660701,77.675194 33.23051,28.322125 Z"
       id="path1"
       sodipodi:nodetypes="cccccccccccccccccccccccc"
       inkscape:label="html" /><path
       style="display:none;fill:#000000;fill-opacity:1;fill-rule:evenodd;stroke:#000000;stroke-width:0.423;stroke-linejoin:bevel;stroke-miterlimit:0;stroke-opacity:0"
       d="M 21.968742,0 17.522687,27.460927 H 119.52042 L 116.12049,46.029744 13.599697,45.506679 9.1536424,73.490674 111.15137,73.229141 105.65919,105.39766 64.33703,120.30502 28.245525,104.87459 30.599319,91.274891 H 5.753718 L 0.26153264,124.48954 58.844843,149.59667 127.62793,124.48954 149.33514,0.26153264 Z"
       id="path2"
       inkscape:label="css" /><g
       id="g4"
       inkscape:label="sql"
       style="display:none"><path
         style="fill:#000000;fill-opacity:1;fill-rule:evenodd;stroke:#000000;stroke-width:0.423;stroke-linejoin:bevel;stroke-miterlimit:0;stroke-opacity:0"
         d="M 6.7998487,6.4075497 C 5.0998865,8.2382782 4.9691202,9.8074741 5.6229519,11.507436 6.2767834,13.207398 17.261154,26.937861 17.653453,29.422423 c 0.392299,2.484559 6.146017,22.622573 12.4228,26.676329 6.276785,4.053755 -9.766662,24.095482 2.746092,45.768208 1.965375,3.40413 2.615327,-5.622948 2.87686,-8.892106 0.261533,-3.269157 4.053758,-10.984369 6.407549,-12.815098 2.353794,-1.830729 4.969121,14.90736 11.376671,22.753334 6.407549,7.84598 9.545941,15.03813 13.991997,17.91499 4.446056,2.87686 -21.633426,-13.10008 -24.714835,-28.507058 -0.130766,-0.65383 0.523066,7.584447 -2.223026,12.684338 -2.746095,5.09988 -9.777643,3.63084 -14.122764,-3.92299 C 17.914985,86.305772 23.185057,69.600123 25.891732,59.498676 26.130905,58.606068 16.607322,47.598941 12.553567,29.814721 11.795733,26.490029 -3.3999244,13.076632 2.0922611,4.4460548 3.9175971,1.5776696 8.3690446,-0.91536424 13.991996,0.78459792 19.614948,2.4845601 29.16089,9.022876 30.337786,10.461306 c 1.176898,1.438429 14.515063,-1.1768973 28.637825,9.807474 14.122762,10.984372 27.199393,23.668703 34.783842,40.668325 7.348727,16.471287 8.820707,29.535899 14.253527,30.991619 8.56121,2.293969 31.90698,16.868856 35.82997,25.107136 3.92299,8.23827 -17.44641,2.17889 -21.44567,5.62295 -1.34721,1.16019 15.95349,10.72284 21.44567,18.96112 2.92402,4.38604 4.96912,7.06138 4.96912,7.06138 0,0 -15.56118,-11.50744 -18.04575,-11.50744 -2.52552,0 -15.1689,-9.02288 -16.99962,-16.47656 -1.42526,-5.80285 22.49181,-4.31528 23.6687,-5.23065 C 138.6123,114.5513 113.63593,98.205508 104.87459,96.37478 96.113247,94.544051 93.105622,68.913851 83.690446,54.39879 78.361376,46.183141 56.491052,20.922611 44.329783,18.045752 32.168515,15.168893 29.814721,16.215024 27.722459,15.822725 25.630199,15.430426 12.030502,3.3999244 6.7998487,6.4075497 Z"
         id="path3"
         sodipodi:nodetypes="csssssssssssssssssssssscsssssssc"
         inkscape:label="sql02" /><path
         style="fill:#000000;fill-opacity:1;fill-rule:evenodd;stroke:#000000;stroke-width:0.423;stroke-linejoin:bevel;stroke-miterlimit:0;stroke-opacity:0"
         d="m 30.337786,26.414797 c 0,0 5.884484,7.322914 5.884484,9.153643 0,1.830729 4.184523,-3.399925 1.569196,-6.538317 -2.615327,-3.138391 -7.45368,-2.615326 -7.45368,-2.615326 z"
         id="path4"
         inkscape:label="sql01" /></g><g
       id="g7"
       inkscape:label="php"
       style="display:none"><path
         style="fill:#000000;fill-opacity:1;fill-rule:evenodd;stroke:#000000;stroke-width:0.423;stroke-linejoin:bevel;stroke-miterlimit:0;stroke-opacity:0"
         d="m 22.001433,92.157564 10.167082,0.294225 2.223026,-10.330539 c 0,0 7.322916,0.130765 8.892112,0.130765 1.569196,0 12.684333,-0.784596 15.691958,-8.630576 3.007625,-7.845981 -1.176898,8.369046 -1.176898,8.369046 l 10.199774,0.26153 4.707589,-22.361041 c 0,0 6.930614,0 8.238278,0.261533 1.307661,0.261532 1.438428,2.223029 1.176896,3.399925 -0.261533,1.176898 -3.399925,18.699583 -3.399925,18.699583 h 10.330539 l 3.966734,-16.994548 1.035594,0.541253 -3.171599,16.584062 -1.961494,10.069007 10.722838,0.130765 2.223023,-10.461304 c 0,0 7.97675,0.392297 10.06901,0 2.09226,-0.392298 7.97675,-0.523066 12.94587,-6.930615 4.96912,-6.40755 4.05375,-12.161269 3.79222,-13.730465 -0.26153,-1.569196 -2.74609,-9.938239 -11.37667,-9.938239 H 97.02861 l -2.868927,14.062027 c 0,0 -1.158124,-0.126431 -1.073213,-0.577713 C 95.037634,54.636227 90.351595,52.926706 87.351903,52.322393 81.165448,51.076082 74.536802,51.652696 74.536802,51.652696 l 1.961496,-10.33054 h -10.98437 l -3.92299,19.745717 c 0,0 -0.784598,-9.284409 -11.115138,-9.545942 -10.33054,-0.261533 -20.530312,0 -20.530312,0 l -7.976746,40.635634 -3.269158,3.040316 c 0,0 -18.17480647,-9.483095 -18.43805135,-25.368665 C -0.04890459,51.095814 34.914607,31.253152 74.929102,30.860851 114.94359,30.468554 150.06511,49.29956 149.8582,68.91385 149.61674,91.803501 105.78995,110.23601 71.398412,108.53605 37.006868,106.83608 18.732276,95.16519 18.732276,95.16519 Z"
         id="path5"
         sodipodi:nodetypes="cccsscccssccccccccssssccssccccscccsssscc"
         inkscape:label="php01" /><path
         style="fill:#000000;fill-opacity:1;fill-rule:evenodd;stroke:#000000;stroke-width:0.423;stroke-linejoin:bevel;stroke-miterlimit:0;stroke-opacity:0"
         d="m 39.09913,59.890974 -2.615327,13.730465 c 0,0 4.969121,0.523065 7.192147,0 2.223029,-0.523066 5.492187,-2.092262 6.015252,-5.099886 0.523065,-3.007625 2.223027,-7.584448 -2.746091,-8.238278 -4.387039,-0.577241 -7.845981,-0.392301 -7.845981,-0.392301 z"
         id="path6"
         sodipodi:nodetypes="ccsssc"
         inkscape:label="php02" /><path
         style="fill:#000000;fill-opacity:1;fill-rule:evenodd;stroke:#000000;stroke-width:0.423;stroke-linejoin:bevel;stroke-miterlimit:0;stroke-opacity:0"
         d="m 106.05149,59.890974 -2.61533,13.730465 c 0,0 4.96912,0.523065 7.19214,0 2.22303,-0.523066 5.49219,-2.092262 6.01526,-5.099886 0.52306,-3.007625 2.22302,-7.584448 -2.74609,-8.238278 -4.38704,-0.577241 -7.84598,-0.392301 -7.84598,-0.392301 z"
         id="path7"
         sodipodi:nodetypes="ccsssc"
         inkscape:label="php03" /></g><path
       style="display:none;fill:#000000;fill-opacity:1;fill-rule:evenodd;stroke:#000000;stroke-width:0.423;stroke-linejoin:bevel;stroke-miterlimit:0;stroke-opacity:0"
       d="M 0,-0.36986302 V 150.16438 l 149.91503,-0.21665 c 0,0 -16.13508,-20.14064 -16.2142,-20.05065 -7.28313,8.2837 -29.43327,14.06939 -44.563844,-5.62311 -0.75793,-0.98645 10.793795,-7.47398 11.095894,-7.0274 9.32523,13.78503 27.29839,8.40208 22.74657,-2.03424 -2.9145,-6.68234 -14.30866,-5.61649 -22.37671,-13.13014 -8.465099,-7.88342 -7.352391,-18.298924 -7.352391,-18.298924 l -11.880487,-0.45576 c 0,0 -0.715094,34.131694 -0.462329,37.895094 0.832191,12.39041 -24.326909,27.17934 -40.962329,4.53082 -0.394717,-0.53739 10.873141,-8.15844 11.095892,-7.39726 2.989375,10.21519 15.814127,9.10071 16.366437,-0.36986 0.6952,-11.92072 -0.510339,-48.627896 0.184931,-48.636984 l 14.147262,-0.184934 c 0,0 -0.35947,9.30026 -0.359607,14.165049 0,0 11.860609,0.841606 11.917824,0.259609 0.915365,-9.311196 11.867967,-18.98055 28.941787,-13.962328 5.84297,1.717327 7.31316,3.227896 10.91095,9.523973 0.19463,0.340606 -10.63426,6.664287 -10.72602,6.28767 -2.01749,-8.280121 -22.23673,-7.382791 -13.31507,6.657535 2.40758,3.788896 17.93835,5.363015 24.22603,13.5 6.28767,8.13699 4.18918,20.01207 0.46232,24.27226 -0.1706,0.19502 16.19273,20.09175 16.19273,20.09175 L 150.16438,0 Z"
       id="path8"
       sodipodi:nodetypes="cccsssssccssssscssssssssccc"
       inkscape:label="js" /><g
       id="g13"
       inkscape:label="wdpss"
       style="display:none"><path
         style="fill:#000000;fill-opacity:1;fill-rule:evenodd;stroke:#000000;stroke-width:0.423;stroke-linejoin:bevel;stroke-miterlimit:0;stroke-opacity:0"
         d="m 16.828767,49.376713 30.143836,82.849307 c 0,0 -21.821919,-4.62329 -32.178082,-34.582187 -7.9342277,-22.952585 2.034246,-48.26712 2.034246,-48.26712 z"
         id="path9"
         sodipodi:nodetypes="ccsc"
         inkscape:label="wdpss05" /><path
         style="fill:#000000;fill-opacity:1;fill-rule:evenodd;stroke:#000000;stroke-width:0.423;stroke-linejoin:bevel;stroke-miterlimit:0;stroke-opacity:0"
         d="m 76.006848,80.999998 -18.67808,55.294522 c -1.407843,4.16777 40.239949,3.40168 38.650682,-0.92466 z"
         id="path10"
         sodipodi:nodetypes="cssc"
         inkscape:label="wdpss04" /><path
         style="fill:#000000;fill-opacity:1;fill-rule:evenodd;stroke:#000000;stroke-width:0.423;stroke-linejoin:bevel;stroke-miterlimit:0;stroke-opacity:0"
         d="m 107.26027,130.00685 c 0,0 21.82192,-61.952057 22.56165,-64.541097 0.73972,-2.589041 2.4041,-16.273973 1.29452,-19.787672 -1.10959,-3.513698 12.96736,21.539152 6.10274,46.60274 -7.0532,25.752119 -29.95891,37.726029 -29.95891,37.726029 z"
         id="path11"
         sodipodi:nodetypes="csssc"
         inkscape:label="wdpss03" /><path
         style="fill:#000000;fill-opacity:1;fill-rule:evenodd;stroke:#000000;stroke-width:0.423;stroke-linejoin:bevel;stroke-miterlimit:0;stroke-opacity:0"
         d="m 22.19178,40.130137 c 0,0 18.122796,-28.998111 51.595891,-29.034247 32.023539,-0.03457 43.828769,16.828766 43.828769,16.828766 0,0 -9.61644,0.369864 -11.09589,9.061646 -1.47945,8.691779 8.69178,19.972602 9.61643,23.856164 0.92466,3.883559 3.5137,15.164382 -0.55479,25.335616 -4.06849,10.171231 -8.69178,27.924658 -8.69178,27.924658 L 84.143836,45.308218 c 0,0 4.811795,-0.690871 7.397257,-0.554794 3.513702,0.184932 3.143838,-5.363015 0.739728,-5.363015 H 57.328768 c -3.513701,0 -3.698632,5.178083 -1.294522,5.178084 3.717076,2e-6 7.397261,0.739725 7.397261,0.739725 l 9.9863,27.739726 L 59.547944,114.28767 36.246575,45.123287 c 0,0 5.547944,-0.369863 7.582191,-0.369863 2.034246,0 3.883562,-5.363015 0.184933,-5.363015 -3.698632,0 -21.821919,0.739728 -21.821919,0.739728 z"
         id="path12"
         sodipodi:nodetypes="cscsssccssssccccssc"
         inkscape:label="wdpss02" /><path
         style="fill:#000000;fill-opacity:1;fill-rule:evenodd;stroke:#000000;stroke-width:0.423;stroke-linejoin:bevel;stroke-miterlimit:0;stroke-opacity:0"
         d="M 1.0461306,71.921478 C -0.46505078,54.414187 19.895067,-0.68941024 74.798334,0.26153264 131.60263,1.245402 149.51827,49.12469 149.59667,77.413661 149.69186,111.76193 116.88391,150.25175 74.166939,149.74988 29.302983,149.22278 0.53206121,113.13344 0.8929283,72.223797 0.89674063,71.791613 4.2534688,72.327016 4.2499055,72.573151 3.7756777,105.33027 31.906479,144.99231 73.972602,146.46575 116.11479,147.94186 143.69178,108.92466 145.5411,77.30137 147.39041,45.678082 119.50451,4.6703902 74.712328,4.068493 28.879577,3.452613 8.5530853,47.526295 4.114726,72.123286 4.0326275,72.578269 1.0461306,71.921478 1.0461306,71.921478 Z"
         id="path13"
         sodipodi:nodetypes="csssssssssc"
         inkscape:label="wdpss01" /></g><g
       id="g16"
       inkscape:label="arst"
       style="display:none"><path
         style="fill:#000000;fill-opacity:1;fill-rule:evenodd;stroke:#000000;stroke-width:0.423;stroke-linejoin:bevel;stroke-miterlimit:0;stroke-opacity:0"
         d="M 15.29966,88.528799 48.252774,29.16089 81.205887,88.528799 Z"
         id="path14"
         inkscape:label="arst03" /><path
         style="fill:#000000;fill-opacity:1;fill-rule:evenodd;stroke:#000000;stroke-width:0.423;stroke-linejoin:bevel;stroke-miterlimit:0;stroke-opacity:0"
         d="M 1.5691958,109.84371 H 93.890218 l 17.784222,31.64545 c 0,0 -77.675196,0 -84.736579,0 -7.06138,0 -10.722837,-5.23065 -12.292033,-7.32291 C 13.076632,132.07398 1.5691958,109.84371 1.5691958,109.84371 Z"
         id="path15"
         inkscape:label="arst02" /><path
         style="fill:#000000;fill-opacity:1;fill-rule:evenodd;stroke:#000000;stroke-width:0.423;stroke-linejoin:bevel;stroke-miterlimit:0;stroke-opacity:0"
         d="M 134.26027,140.73288 60.287672,7.9520546 c 0,0 21.267121,-0.3698629 25.89041,-0.1849313 4.623287,0.1849313 9.246574,2.4041097 12.945205,8.8767117 3.698633,6.472603 45.493153,82.294519 47.712323,86.917805 2.21918,4.62329 2.95891,9.61644 -0.36986,15.53425 -3.32877,5.91781 -12.20548,21.63699 -12.20548,21.63699 z"
         id="path16"
         inkscape:label="arst01" /></g><path
       style="display:none;fill:#000000;fill-opacity:1;fill-rule:evenodd;stroke:#000000;stroke-width:0.423;stroke-linejoin:bevel;stroke-miterlimit:0;stroke-opacity:0"
       d="M 72.967608,0.52306529 C 105.92072,0.26153264 147.76594,21.707209 149.33514,74.275269 c 1.56919,52.568061 -37.34175,71.808401 -51.014731,75.474611 -0.377283,0.10116 -3.815935,0.82194 -4.430191,-6.16846 -0.551987,-6.28177 2.99417,-26.47832 -4.969119,-32.43005 -1.265047,-0.94549 10.639415,0.10979 18.506721,-5.78544 26.94899,-20.19378 11.56954,-46.259552 7.90808,-52.274803 -0.76924,-1.263752 3.14324,-16.482944 -0.7846,-20.922612 -1.66782,-1.885147 -20.180347,8.269646 -20.661082,8.172896 -15.194243,-3.057917 -18.851241,-4.605599 -36.941484,-0.130766 0,0 -17.78222,-11.257982 -20.334164,-7.780597 -4.990195,6.799848 -0.398271,19.860693 -0.921936,20.723176 -22.812741,37.572855 15.559284,59.544666 26.092527,57.537176 0.335853,-0.064 -4.065061,3.53342 -4.661353,10.18391 -0.06222,0.69391 -12.690906,7.62298 -21.555368,-5.01535 -6.173821,-8.8022 -12.001495,-9.79818 -14.355289,-8.22898 -2.353793,1.56919 2.250907,2.61396 6.282227,7.70864 3.213088,4.06062 5.097072,9.26401 6.841999,11.61032 6.024778,8.10117 22.191536,3.83475 22.214411,4.87802 l 0.331563,15.12169 c 0,0 -0.855306,4.32492 -6.930616,2.38649 C 35.6897,144.78427 0.52306522,126.5818 0.52306529,80.552054 0.52306537,25.881722 45.506681,0.78459792 72.967608,0.52306529 Z"
       id="path17"
       sodipodi:nodetypes="csssssssssssssssssscssc"
       inkscape:label="git" /><g
       id="g23"
       inkscape:label="maya"
       style="display:none"><path
         style="fill:#000000;fill-opacity:1;fill-rule:evenodd;stroke:#000000;stroke-width:0.423;stroke-linejoin:bevel;stroke-miterlimit:0;stroke-opacity:0"
         d="m 36.22227,75.3214 c 0.343708,-1.036847 1.569196,2.876859 1.569196,2.876859 v 64.467801 c 0,4.57682 -8.378478,6.61701 -36.4838028,6.40755 C 0.40013581,149.06685 18.971924,127.35962 36.22227,75.3214 Z"
         id="path18"
         sodipodi:nodetypes="scsss"
         inkscape:label="my06" /><path
         style="fill:#000000;fill-opacity:1;fill-rule:evenodd;stroke:#000000;stroke-width:0.423;stroke-linejoin:bevel;stroke-miterlimit:0;stroke-opacity:0"
         d="m 35.56844,74.013736 c 0,0 -7.056932,27.893704 -34.78384208,75.059874 C 0.34358348,149.82382 0.04147485,4.0023338 0.6538316,5.2306529 21.680783,47.408365 35.56844,74.013736 35.56844,74.013736 Z"
         id="path19"
         sodipodi:nodetypes="cssc"
         inkscape:label="my05" /><path
         style="fill:#000000;fill-opacity:1;fill-rule:evenodd;stroke:#000000;stroke-width:0.423;stroke-linejoin:bevel;stroke-miterlimit:0;stroke-opacity:0"
         d="M 0.78459792,5.0998865 43.937483,1.0461306 89.57493,120.56655 61.852471,120.43578 Z"
         id="path20"
         inkscape:label="my04" /><path
         style="fill:#000000;fill-opacity:1;fill-rule:evenodd;stroke:#000000;stroke-width:0.423;stroke-linejoin:bevel;stroke-miterlimit:0;stroke-opacity:0"
         d="M 75.190635,79.113625 89.705697,120.56655 148.94284,5.3614192 h -44.32978 z"
         id="path21"
         inkscape:label="my03" /><path
         style="fill:#000000;fill-opacity:1;fill-rule:evenodd;stroke:#000000;stroke-width:0.423;stroke-linejoin:bevel;stroke-miterlimit:0;stroke-opacity:0"
         d="m 148.81207,5.753718 c 0.42128,-0.3486477 -17.48676,39.813557 -35.82997,71.790711 -0.81726,1.424713 0.3923,65.121631 0.3923,65.121631 0,0 1.89432,6.45806 2.35379,5.49218 C 147.67952,80.991057 148.81207,5.753718 148.81207,5.753718 Z"
         id="path22"
         sodipodi:nodetypes="cscsc"
         inkscape:label="my02" /><path
         style="fill:#000000;fill-opacity:1;fill-rule:evenodd;stroke:#000000;stroke-width:0.423;stroke-linejoin:bevel;stroke-miterlimit:0;stroke-opacity:0"
         d="m 148.75791,6.8825536 0.3157,141.0141564 c 0,0 -33.38368,1.04182 -32.94518,0.14663 C 150.21686,78.451387 148.75791,6.8825536 148.75791,6.8825536 Z"
         id="path23"
         sodipodi:nodetypes="ccsc"
         inkscape:label="my01" /></g><g
       id="g25"
       inkscape:label="blender"
       style="display:none"><path
         style="fill:#000000;fill-opacity:1;fill-rule:evenodd;stroke:#000000;stroke-width:0.423;stroke-linejoin:bevel;stroke-miterlimit:0;stroke-opacity:0"
         d="m 59.580636,55.5224 c 0,0 -50.5263319,36.165178 -56.9915949,42.121435 -5.6378341,5.193975 1.8493149,21.082195 11.8356159,13.315065 9.986302,-7.76712 32.178082,-25.890409 32.178082,-25.890409 0,0 -3.188322,25.429049 25.711036,40.859479 25.279184,13.49749 74.267095,2.44902 76.890595,-36.222273 C 151.4097,57.19834 126.9741,48.38354 114.81283,39.491429 102.65157,30.59932 90.097996,21.968742 83.690444,16.868855 77.218683,11.717863 65.121629,20.922611 73.359907,27.33016 c 8.238279,6.40755 18.568817,14.122764 18.568817,14.122764 0,0 -57.021222,-0.120496 -61.46017,0.130765 -6.930616,0.392299 -13.991997,13.730464 -0.523066,13.991997 14.512324,0.281793 61.242786,-0.629805 68.423479,-0.06538 14.972733,1.176898 30.679013,8.361464 30.828163,28.049376 0.13076,17.261158 -16.21503,26.284028 -30.076259,26.676328 -13.861229,0.3923 -33.720878,-9.71173 -32.43662,-27.40676 C 68.449067,58.512908 100.15139,55.624791 98.552255,55.521866 91.46481,55.0657 59.580636,55.522398 59.580636,55.522398 Z"
         id="path24"
         sodipodi:nodetypes="csscssssscssssssscc"
         inkscape:label="bld02" /><path
         style="fill:#000000;fill-opacity:1;fill-rule:evenodd;stroke:#000000;stroke-width:0.423;stroke-linejoin:bevel;stroke-miterlimit:0;stroke-opacity:0"
         d="m 97.02861,63.944732 c 14.90736,-0.130766 21.57644,9.807474 21.05338,18.307285 -0.52307,8.499811 -6.40756,16.607321 -20.530314,16.476556 C 83.399884,98.597539 77.80596,90.490295 77.80596,81.598184 c 0,-8.892109 7.584447,-17.522687 19.22265,-17.653452 z"
         id="path25"
         sodipodi:nodetypes="csssc"
         inkscape:label="bld01" /></g><path
       style="display:none;fill:#000000;fill-opacity:1;fill-rule:evenodd;stroke:#000000;stroke-width:0.423;stroke-linejoin:bevel;stroke-miterlimit:0;stroke-opacity:0"
       d="m 24.415766,0.18594121 c 11.465752,0 93.764434,-0.39715456 100.597934,-0.00101 12.76027,0.73972603 24.78082,15.16438379 24.78082,24.59589079 0,9.431506 -0.18493,91.356158 0,100.417808 0.18493,9.06164 -12.20548,24.78082 -25.52055,25.15068 -13.31507,0.36987 -88.76712,-0.73972 -99.67808,-0.55479 C 13.684931,149.97945 -0.18493151,135.55479 0,124.08904 0.18493151,112.62329 0.06537853,34.209099 0.36986302,25.150685 0.73972603,14.14726 12.482876,0.18493151 24.410959,0.18493151 c 0.02712,0 15.522687,38.65068349 15.522687,38.65068349 l -0.173373,4.993151 -21.359588,62.136984 h 13.592464 l 5.178084,-16.181506 3.606165,-12.852738 7.674657,-26.537671 8.229452,26.630137 -15.903308,-0.06839 -3.603504,12.83469 23.112977,-0.006 5.363011,15.811638 15.071918,-0.0925 -5.987156,-16.065913 8.992295,-0.392979 c 0,0 3.55993,14.424652 15.950341,17.106152 12.390409,2.68151 24.503429,-1.29452 24.503429,-1.94178 0,-0.64726 -0.18494,-11.373277 -0.18494,-11.373277 0,0 -7.85959,3.698632 -16.08904,1.941782 C 99.678081,93.020546 96.996574,84.69863 96.996574,84.2363 c 0,-0.462328 30.791096,-0.369861 30.791096,-0.369861 0,0 3.06525,-14.589583 -6.62019,-24.890116 -0.0579,-0.0616 -7.26089,10.236615 -7.26089,10.236615 0,0 0.91471,1.497598 1.10959,5.380804 0.0145,0.288513 -18.204536,-0.06635 -18.204536,-0.06635 0,0 1.941779,-9.893835 9.061646,-9.431507 7.11986,0.46233 7.98474,4.133876 7.98474,4.133876 l 7.27211,-10.236615 c 0,0 -12.85274,-10.356164 -27.739731,-1.017124 -14.886985,9.339043 -9.616437,31.068494 -9.616437,31.068494 l -9.061643,0.369863 -17.660961,-50.671232 -17.106162,0.09246 z"
       id="path26"
       sodipodi:nodetypes="csssssssscccccccccccccccssccscscscsccsccccc"
       inkscape:label="aftefct" /><g
       id="g28"
       inkscape:label="zbruch"
       style="display:none"><path
         style="fill:#000000;fill-opacity:1;fill-rule:evenodd;stroke:#000000;stroke-width:0.423;stroke-linejoin:bevel;stroke-miterlimit:0;stroke-opacity:0"
         d="m 88.118761,1.683798 c 9.541523,0.3741773 14.405829,15.341271 14.405829,15.341271 0,0 3.92886,8.606078 -5.238485,10.289876 C 88.118761,28.998743 82.506102,28.811654 77.267619,20.579753 72.029137,12.347852 81.109224,1.4089143 88.118761,1.683798 Z"
         id="path27"
         sodipodi:nodetypes="scsss"
         inkscape:label="zbr02" /><path
         style="fill:#000000;fill-opacity:1;fill-rule:evenodd;stroke:#000000;stroke-width:0.423;stroke-linejoin:bevel;stroke-miterlimit:0;stroke-opacity:0"
         d="m 37.090329,63.563373 c -2.619243,3.554685 -17.305702,9.962472 -20.06526,7.343232 -2.535022,-2.406121 6.548103,-13.14298 11.225321,-18.381463 4.677216,-5.238483 14.454589,-20.659553 42.188492,-20.065257 13.09621,0.280632 26.660084,8.818232 31.150268,11.69304 0.17442,0.111669 11.59949,-10.851142 19.27013,-8.980257 7.67063,1.870887 7.12691,7.506935 7.12691,7.506935 0,0 -3.41859,0.453241 -3.46699,0.385869 -3.92386,-5.461826 -16.59872,2.175848 -16.64653,3.002761 -0.0493,0.852717 14.82568,3.458496 16.66407,-2.955988 -0.0117,-0.05847 3.45244,-0.48347 3.45529,-0.415105 0.18636,4.471828 -4.56391,13.526818 -16.47016,20.339838 -12.620635,7.221806 -19.976038,-2.116666 -19.976038,-2.116666 0,0 -16.968572,19.367071 -17.859375,22.158854 -0.113526,0.355792 5.11597,-1.272406 17.528646,2.447395 36.149717,10.833261 53.182457,42.466229 57.348437,56.025519 4.0657,13.2329 -8.73125,2.64583 -8.73125,2.64583 0,0 -16.66875,-14.1552 -16.53646,-16.93333 0.13229,-2.77812 5.60142,-8.52706 -2.64583,-15.08125 -15.66156,-12.446425 -58.144372,-13.346547 -59.266667,-11.90625 -4.44549,5.70512 -22.621875,31.22084 -50.00625,40.08438 -10.67982451,3.45675 -10.69082,-1.54616 -10.69082,-1.54616 0,0 8.6894827,-6.8338 8.7560546,-6.74687 1.6174344,2.11198 18.2066404,-3.34864 30.3774734,-15.91635 C 51.990624,103.58437 51.726041,101.6 51.726041,101.6 c 0,0 -11.051723,1.05007 -29.236458,12.03854 -7.136793,4.31254 -14.4419684,17.07479 -13.0968748,18.38854 0.063737,0.0622 -8.70644519,6.77168 -8.70644519,6.77168 0,0 0.14462117,-14.28135 24.31686199,-33.89147 18.692764,-15.164809 39.158333,-19.976041 39.158333,-19.976041 0,0 10.793133,-17.825392 22.092708,-26.9875 0.406644,-0.329722 -9.229695,-7.765083 -18.785417,-13.49375 -9.438688,-5.658504 -26.10434,2.074618 -28.752686,8.355696 -1.954719,4.636004 -1.625734,10.757678 -1.625734,10.757678 z"
         id="path28"
         sodipodi:nodetypes="cssssscsscsscssscsssscsscsscscsssc"
         inkscape:label="zbr01" /></g><path
       style="display:none;fill:#000000;fill-opacity:1;fill-rule:evenodd;stroke:#000000;stroke-width:0.423;stroke-linejoin:bevel;stroke-miterlimit:0;stroke-opacity:0"
       d="M 24.695704,0.18708867 C 39.101532,0 116.18206,0.37417734 125.72358,0.37417734 c 9.54153,0 23.94735,12.53494066 23.94735,24.88279266 0,12.347851 0.56127,89.98965 0,100.27953 -0.56126,10.28987 -10.66405,24.6957 -24.32152,24.50861 C 111.69193,149.85802 32.179252,149.85802 23.198995,149.67093 14.218739,149.48385 -0.37417734,138.81979 0,123.66561 0.37417734,108.51143 0,33.863049 0.37417734,24.508615 0.74835466,15.154182 11.44219,-0.24043246 24.691773,0.18425147 c 0.03233,0.001036 9.884552,38.43786553 9.884552,38.43786553 l -0.15201,67.277363 H 47.228124 V 84.335936 72.429687 51.196874 c 0,0 6.614584,-0.79375 10.583334,-0.198437 3.96875,0.595312 9.921874,3.770312 9.657291,10.781771 -0.264583,7.011458 -5.357812,9.392708 -8.400521,10.120312 -3.042708,0.727604 -11.80703,0.545703 -11.80703,0.545703 l -0.0083,11.897982 c 0,0 9.764779,0.917773 15.519466,-0.603581 5.754687,-1.521354 18.181846,-6.51052 18.181836,-18.901171 0,-0.214975 6.945312,3.340364 6.945312,3.340364 0,0 -1.302986,12.582539 11.319205,15.560807 11.773963,2.778125 12.128483,6.05285 11.443223,8.532813 -1.38906,5.027083 -16.251738,4.421441 -22.357285,-0.463021 -0.330728,-0.264584 -0.46302,12.236974 -0.46302,12.236974 0,0 10.186458,5.82084 24.936975,2.11667 14.75053,-3.70417 12.14441,-19.742993 7.47449,-24.473957 -10.12032,-10.252604 -23.590434,-6.679228 -19.53516,-13.489049 3.8239,-6.421275 20.26276,0.524466 20.26276,0.524466 l 0.26458,-12.104687 c 0,0 -11.90625,-4.101042 -20.76979,-1.5875 -8.863543,2.513541 -11.674741,7.242968 -12.56771,13.096874 -0.01051,0.0689 -6.945312,-3.356901 -6.945312,-3.356901 C 82.133027,54.210882 77.45677,42.134895 64.889062,39.35677 52.321354,36.578645 34.59427,38.629166 34.59427,38.629166 Z"
       id="path29"
       sodipodi:nodetypes="cssssssssccccccsssccsscssscsssccsssscc"
       inkscape:label="phshp" /><path
       style="display:none;fill:#000000;fill-opacity:1;fill-rule:evenodd;stroke:#000000;stroke-width:0.423;stroke-linejoin:bevel;stroke-miterlimit:0;stroke-opacity:0"
       d="M 24.126693,0.38033854 C 32.659505,0.31419274 116.94583,0.26458333 125.14792,0.33072913 133.35,0.39687493 149.68802,11.90625 149.75416,25.069271 c 0.0661,13.16302 0.19844,91.413539 0.0661,98.623439 -0.13229,7.20989 -10.12031,25.86302 -23.74635,25.99531 -13.62604,0.13229 -87.246356,0.39687 -101.136981,0.13229 C 11.046354,149.55573 -0.06614583,137.2526 0,124.08958 0.06614583,110.92656 0.06614583,36.777083 0.06614583,26.19375 0.06614583,15.610416 11.77378,0.396875 24.077083,0.396875 c 0.09922,0 11.831835,38.269499 11.831835,38.269499 l -0.190163,67.431546 13.626041,-0.1323 -0.132292,-21.563538 V 72.363541 50.965364 c 0,0 7.573698,-0.198438 9.822657,0 2.248958,0.198437 8.433593,1.719792 9.624218,6.813021 1.190625,5.093229 0.463021,10.351822 -3.902604,12.633854 -4.365625,2.282031 -6.912239,2.083593 -8.135937,2.116666 -1.223698,0.03307 -7.375261,-0.173636 -7.375261,-0.173636 l -0.0124,12.038542 c 0,0 8.578288,0.603581 12.447819,-0.124023 3.869531,-0.727605 12.933379,-1.792632 18.421614,-11.298535 0.01459,-0.02528 11.542448,1.343587 11.542448,1.343587 v 31.58464 H 105.70104 V 72.628124 c 0,0 3.90242,-4.960937 16.04036,-4.960937 0.11575,0 0.19844,-13.989844 0.19844,-13.989844 0,0 -8.59089,-1.151878 -16.99948,7.970573 0,0 -0.18159,-4.895049 -1.75286,-6.779948 -0.0978,-0.117349 -11.972397,-0.09922 -11.972397,-0.09922 l 0.429948,19.529557 -11.542448,-1.339453 c 0,0 7.208468,-14.112377 -1.81901,-25.86302 -8.003646,-10.417969 -20.022641,-8.942037 -32.77526,-8.632031 -3.808331,0.09258 -9.591146,0.198437 -9.591146,0.198437 z"
       id="path30"
       sodipodi:nodetypes="csccsssssccccccssssccssccccscsscccsscc"
       inkscape:label="prpro" /><g
       id="g32"
       inkscape:label="nuke"
       style="display:none"><path
         style="fill:#000000;fill-opacity:1;fill-rule:evenodd;stroke:#000000;stroke-width:0.423;stroke-linejoin:bevel;stroke-miterlimit:0;stroke-opacity:0"
         d="m 0.9385639,76.347005 c 0,22.119366 16.5624871,70.271815 72.1810051,72.278885 C 123.41507,150.44087 148.17422,113.937 148.73549,74.648377 149.29676,35.359758 121.42499,0.24716356 75.396732,1.122532 28.919347,2.006442 0.93544333,36.104197 0.93544333,76.332177 c 0,0.02276 8.12149927,1.814483 8.12028017,1.805733 C 6.1453069,57.247296 30.896221,7.8350262 75.236235,8.022115 119.57625,8.2092037 142.36508,43.52162 141.42963,75.700869 140.49419,107.88012 114.66094,142.47836 74.46129,141.06485 34.634101,139.66444 10.95285,110.28708 9.0567771,78.141451 9.0555924,78.121366 0.9385639,76.347005 0.9385639,76.347005 Z"
         id="path31"
         sodipodi:nodetypes="csssssssssc"
         inkscape:label="nk02" /><path
         style="fill:#000000;fill-opacity:1;fill-rule:evenodd;stroke:#000000;stroke-width:0.423;stroke-linejoin:bevel;stroke-miterlimit:0;stroke-opacity:0"
         d="m 17.586334,54.723434 c 1.933748,-9.948151 15.34127,-28.811653 30.776086,-34.704947 8.407706,-3.210215 18.00071,14.437753 24.321527,19.457222 3.180508,2.525696 15.996081,2.666012 16.463802,2.338609 1.10524,-0.773666 1.987817,-1.56687 2.174907,-4.18611 0.187086,-2.619243 0.257247,-14.709846 1.099145,-16.3001 0.841899,-1.590254 1.262975,-3.996243 6.173925,-2.15152 18.428234,6.922281 30.627744,23.717619 33.506874,33.434074 2.13571,7.207615 0.13034,6.636948 -3.14371,7.385301 -3.27405,0.748355 -15.81956,0.811872 -19.02161,0.643462 -1.98522,-0.104412 -1.99652,11.125129 -1.43526,13.463736 0.56127,2.338609 1.7707,5.91599 7.66399,11.809285 5.89329,5.893292 12.76786,10.351168 12.10596,14.816804 -1.98907,13.41981 -19.0547,32.72177 -37.825949,32.92485 -4.941798,0.0535 -3.543048,-6.19231 -3.430416,-8.35948 0.577599,-11.11361 2.451059,-36.808314 1.486735,-39.648705 -0.99024,-2.916729 -9.644466,-12.58779 -9.644466,-12.58779 l 6.047308,-7.879934 c 0,0 3.248188,3.506701 8.578681,4.214682 5.678373,0.754185 6.310874,-4.751217 6.00856,-6.894395 -0.331096,-2.347228 -2.809406,-7.973046 -6.977078,-10.768463 -4.213915,-2.826434 -9.5065,-2.64469 -11.003211,1.377715 -1.496708,4.022407 2.562415,11.112763 3.327876,11.939143 0.136504,0.147367 -6.031745,7.934729 -6.031745,7.934729 0,0 -10.079771,-10.623526 -10.614446,-11.148798 -2.77712,-2.728284 -41.977635,-1.724688 -46.210901,-1.590252 -4.209495,0.133681 -4.849035,-3.191486 -4.396584,-5.519118 z"
         id="path32"
         sodipodi:nodetypes="ssssssssssssssssccssssscsss"
         inkscape:label="nk01" /></g><path
       style="display:none;fill:#000000;fill-opacity:1;fill-rule:evenodd;stroke:#000000;stroke-width:0.423;stroke-linejoin:bevel;stroke-miterlimit:0;stroke-opacity:0"
       d="m 18.849183,0.60803816 c 12.020447,0.0467722 101.168197,0 112.487057,0 11.31887,0 18.19438,10.57050984 18.19438,18.19437284 V 129.74599 c 0,9.35443 -8.69963,19.57415 -19.57415,19.57415 H 18.334689 c -10.430193,0 -17.71495779,-10.38342 -17.71495779,-17.71496 V 17.960512 c 0,-8.2319012 10.96152179,-18.35396747 18.22978779,-17.34922113 0.05981,0.008268 36.148704,44.10290113 36.148704,44.10290113 0,0 0.473567,2.525696 -0.321559,4.677216 -0.795129,2.15152 -21.32811,60.663502 -21.32811,60.663502 h 13.563928 l 5.238482,-15.715451 3.389816,-12.650954 7.929049,-25.842539 8.185131,26.052097 -16.095474,-0.187089 -3.388554,12.625277 22.851624,0.01169 5.752975,15.566649 14.499373,-0.37418 -10.23726,-28.045758 16.645046,0.362483 0.0936,27.963915 13.75101,0.14031 0.0468,-49.110774 -7.52513,-0.192519 0.22867,-5.513685 c 0,0 8.52068,0.09348 8.41899,-6.407786 -0.0885,-5.658934 -1.72799,-8.727566 -7.43677,-8.886714 -5.47028,-0.152499 -8.27867,3.040192 -8.27867,8.418992 0,5.378799 7.28867,6.861808 7.28867,6.861808 l -0.22612,5.532814 -6.31424,-0.04677 -0.0468,21.234564 -16.650891,-0.374179 -13.002662,-36.809696 -17.02507,0.04677 z"
       id="path33"
       sodipodi:nodetypes="csssssssscsccccccccccccccccccssscccccccc"
       inkscape:label="illtor" /><path
       style="display:none;fill:#000000;fill-opacity:1;fill-rule:evenodd;stroke:#000000;stroke-width:0.423;stroke-linejoin:bevel;stroke-miterlimit:0;stroke-opacity:0"
       d="M 24.882793,0.56126599 H 125.16232 c 9.16734,0 24.78925,13.84456101 24.78925,24.78924801 v 98.595726 c 0,9.16735 -10.94469,25.06988 -25.06989,25.06988 H 24.976337 c -12.067219,0 -24.88279267,-10.85114 -24.88279267,-24.88279 V 24.040894 c 0,-8.138357 12.39462467,-23.52640017 24.69570467,-23.52640017 0.23386,0 16.183168,38.25963117 16.183168,38.25963117 v 67.492235 h 13.56393 l 0.09354,-31.080101 10.289876,0.397563 c 0,0 -2.899873,16.276714 7.202913,24.976338 10.102789,8.69962 24.602159,5.89329 24.602159,5.89329 l -0.02172,-12.226907 c 0,0 -12.335607,2.990164 -16.535625,-5.920692 -3.461138,-7.343231 -1.777341,-16.183169 4.677217,-20.205576 4.973771,-3.099597 11.865947,-2.347662 11.88013,-1.870887 0.0026,0.08738 0,27.99535 0,27.99535 l 0.02171,12.228712 c 0,0 14.243333,-3.0511 14.243333,-3.69998 V 33.3375 H 96.572915 v 20.902083 c 0,0 -17.833923,-2.009826 -25.771423,8.970382 -5.427347,7.50783 -5.88572,12.340957 -5.88572,12.340957 L 54.636458,75.141666 V 38.761458 L 40.97098,38.714686 Z"
       id="path34"
       sodipodi:nodetypes="csssssssscccccsccsssccscccsccccc"
       inkscape:label="indgn" /><path
       style="display:none;fill:#000000;fill-opacity:1;fill-rule:evenodd;stroke:#000000;stroke-width:0.423;stroke-linejoin:bevel;stroke-miterlimit:0;stroke-opacity:0"
       d="m 27.127128,149.18992 89.950992,0.0351 c 15.21354,0.006 31.75,-12.83229 31.75,-31.75 V 30.691666 c 0,-17.462499 -12.43541,-29.76562435 -32.94062,-29.76562435 H 33.734375 C 12.038542,0.92604165 1.3890625,16.536458 1.3890625,33.271354 V 119.0625 c 0,16.00729 17.0325515,30.12942 25.7307285,30.12942 0.115755,0 24.798609,-28.0295 24.60625,-28.14505 -1.420939,-0.85358 -14.302409,-8.72412 -4.365625,-23.680205 4.767025,-7.17496 10.186458,-5.820833 10.186458,-5.820833 0,0 -13.620973,-2.7789 -13.758333,-14.948958 -0.165365,-14.651302 13.229167,-16.271875 13.229167,-16.271875 0,0 -13.724066,-1.954519 -13.49375,-16.271875 C 43.745209,30.29927 58.340624,28.707291 58.340624,28.707291 h 33.866667 c 0,0 15.092189,1.541285 14.419789,16.271875 -0.63356,13.879567 -14.684373,14.982032 -14.684373,14.982032 0,0 14.630913,1.586829 14.816663,15.841926 0.1571,12.055967 -8.340047,15.283771 -16.619457,15.446026 -7.716049,0.151215 -14.758814,-4.804485 -15.014297,-14.757975 -0.241822,-9.42128 9.108181,-16.649947 15.912606,-16.540353 5.033389,0.08107 -16.425723,-0.419573 -16.425723,-0.419573 l 0.264583,51.064581 c 0,0 -3.166661,16.75338 -23.117968,10.47171 -0.03682,-0.0116 -24.631986,28.12238 -24.631986,28.12238 z"
       id="path35"
       sodipodi:nodetypes="csssssssssscscsccscssssccsc"
       inkscape:label="figma" /><path
       style="display:none;fill:#000000;fill-opacity:1;fill-rule:evenodd;stroke:#000000;stroke-width:0.423;stroke-linejoin:bevel;stroke-miterlimit:0;stroke-opacity:0"
       d="M 1.8520833,1.3890625 V 149.225 H 52.652083 v -42.59792 h 10.31875 l 29.104166,42.33333 H 148.69583 L 114.03542,98.689582 c 0,0 30.42708,-9.260416 29.89791,-44.714583 C 143.40416,18.520833 114.56458,5.2916666 96.572915,2.9104166 78.581249,0.52916666 1.843815,1.3890625 1.843815,1.3890625 L 52.37145,42.724361 c 0,0 22.571778,-0.457174 27.003549,0.204284 4.431771,0.661459 12.766146,3.505729 13.559896,9.525 0.79375,6.019271 1.058333,8.665104 -1.521354,12.7 -2.579688,4.034896 -11.707813,6.614583 -15.676563,6.614583 -3.96875,0 -23.349479,0.06615 -23.349479,0.06615 l -0.01754,-29.094656 z"
       id="path36"
       sodipodi:nodetypes="ccccccccssccssssccc"
       inkscape:label="rdman" /><g
       id="g38"
       inkscape:label="arnold"
       style="display:none"><path
         style="fill:#000000;fill-opacity:1;fill-rule:evenodd;stroke:#000000;stroke-width:0.423;stroke-linejoin:bevel;stroke-miterlimit:0;stroke-opacity:0"
         d="M 22.225,110.59583 C 31.220833,90.487499 56.769345,27.739077 62.044791,14.022916 67.997916,-1.4552083 85.871859,-2.1472747 91.942707,13.626041 c 6.654095,17.28871 35.851043,87.180209 40.348953,98.557289 4.49792,11.37709 -26.43351,36.3355 -56.223953,35.32188 -34.7222,-1.18142 -55.494179,-19.76314 -53.892459,-36.83579 0.01213,-0.12926 16.950012,2.09269 16.950012,2.09269 0,0 11.28169,18.33748 38.529947,17.80977 24.203603,-0.46875 35.378853,-14.79112 37.173963,-17.06563 L 77.258332,21.960416 39.158333,112.7125 Z"
         id="path37"
         sodipodi:nodetypes="cssssscscccc"
         inkscape:label="arnld01" /><path
         style="fill:#000000;fill-opacity:1;fill-rule:evenodd;stroke:#000000;stroke-width:0.423;stroke-linejoin:bevel;stroke-miterlimit:0;stroke-opacity:0"
         d="m 56.091666,83.343749 c 0,0 -9.668662,23.173831 -9.19427,22.820311 19.152801,-14.272757 47.891326,-10.442001 60.589584,0.19844 0,0 -9.53603,-22.834172 -9.855731,-23.018751 -9.247364,-5.338968 -32.014583,-5.820833 -41.539583,0 z"
         id="path38"
         sodipodi:nodetypes="csssc"
         inkscape:label="arnld02" /></g><path
       style="display:none;fill:#000000;fill-opacity:1;fill-rule:evenodd;stroke:#000000;stroke-width:0.423;stroke-linejoin:bevel;stroke-miterlimit:0;stroke-opacity:0"
       d="M 64.087631,34.068772 62.920392,31.738307 44.383854,31.485416 0.396875,74.546353 l 44.185416,42.994787 18.057812,-0.26458 1.5875,-2.38125 -33.469791,-33.072915 53.181249,-0.06615 26.722919,44.648445 -46.41784,-11.47631 -1.554427,2.36472 9.144661,15.39544 60.457286,15.67656 16.07344,-58.539063 -9.26041,-15.473991 -2.87321,-0.05788 -12.67106,44.834464 -26.789067,-44.714575 26.656767,-44.648437 12.79922,44.520279 2.88561,0.06201 9.45059,-15.015103 L 132.22552,0.59531249 71.635937,16.271875 62.912368,31.715265 64.090611,34.072785 110.46354,22.489583 83.872916,67.534895 30.823958,67.13802 Z"
       id="path39"
       sodipodi:nodetypes="ccccccccccccccccccccccccccccccc"
       inkscape:label="unity" /><g
       id="g41"
       inkscape:label="unreal"
       style="display:none"><path
         style="fill:#000000;fill-opacity:1;fill-rule:evenodd;stroke:#000000;stroke-width:0.423;stroke-linejoin:bevel;stroke-miterlimit:0;stroke-opacity:0"
         d="M 71.816269,0.90237041 C 119.71197,-0.42249337 149.10966,28.437477 149.29676,75.583822 c 0.173,43.594928 -38.91445,73.151668 -76.332181,73.151668 -37.417732,0 -71.4678697,-28.43748 -72.02913567,-77.641796 C 0.37417734,21.889374 45.583324,0.89410218 71.756126,0.89410218 c 0.08512,0 -0.116422,7.12340882 -0.191143,7.12282502 C 54.854668,7.8863779 9.541522,26.940769 9.3544332,70.719515 9.1673445,114.49826 37.979,142.0003 74.2742,141.43903 110.5694,140.87776 141.15687,113.84833 140.50359,75.957998 139.75523,32.553427 111.02914,8.2092037 71.655119,8.022115 c -0.08801,-4.182e-4 0.16115,-7.11974459 0.16115,-7.11974459 z"
         id="path40"
         sodipodi:nodetypes="csssssssssc"
         inkscape:label="unrl02" /><path
         style="fill:#000000;fill-opacity:1;fill-rule:evenodd;stroke:#000000;stroke-width:0.423;stroke-linejoin:bevel;stroke-miterlimit:0;stroke-opacity:0"
         d="m 19.84375,88.899999 c 0.529167,-14.948958 12.482534,-51.064583 50.006249,-62.044791 0.838821,-0.245456 -7.386493,3.599271 -8.995833,15.08125 -1.124339,8.021695 2.116666,9.392707 6.217708,7.672916 0.656893,-0.275471 -1.322916,45.772916 0.396875,48.551041 1.719792,2.778125 10.177759,6.094115 18.25625,-1.984375 0.661458,-0.661458 0.79375,-41.671874 0.79375,-41.671874 0,0 -3.96875,-8.202083 -7.276042,-8.995833 -3.307291,-0.79375 8.216209,0.596805 9.921875,3.439583 0.396875,0.661459 8.466666,-11.509374 25.929168,-14.684375 0.66358,-0.120651 -5.68854,6.746875 -10.58333,16.66875 -0.34593,0.701209 -0.92605,43.656249 -0.52917,44.449999 1.13803,2.276024 7.78852,4.3825 22.09271,-8.731249 C 126.48767,86.271759 112.05104,110.19896 97.498957,119.0625 82.946874,127.92604 86.121874,107.95 86.121874,107.95 l -11.509375,14.68437 c 0,0 -26.290268,-4.08547 -32.808333,-17.99166 -0.327384,-0.69847 4.223896,1.86152 7.011458,-1.71979 0.459663,-0.59055 0.264584,-40.745837 0.264584,-41.275004 1e-6,-0.963098 -1.541019,-4.310438 -6.085417,-1.322917 -14.287499,9.392708 -23.151041,28.575 -23.151041,28.575 z"
         id="path41"
         sodipodi:nodetypes="cssssscsssssssccssssc"
         inkscape:label="unrl01" /></g><g
       id="g45"
       inkscape:label="inkscape"
       style="display:none"><path
         style="fill:#000000;fill-opacity:1;fill-rule:evenodd;stroke:#000000;stroke-width:0.423;stroke-linejoin:bevel;stroke-miterlimit:0;stroke-opacity:0"
         d="M 60.990905,6.454559 C 68.66448,-1.2190164 78.687595,-1.1331203 85.848247,6.0275318 94.691279,14.870564 113.84345,35.546847 113.84345,35.546847 l -9.0738,4.209494 c 0,0 1.78772,-2.966506 -0.4573,-6.801824 C 101.21862,29.860787 84.376992,11.973673 82.131926,9.3544333 78.434762,5.0410816 70.390289,5.2162303 66.626263,8.9802559 61.335837,14.270682 48.268457,28.554138 43.427268,33.395327 c -1.804413,1.804413 -2.758713,7.747639 0.445024,8.606078 3.583093,0.960087 13.376839,0.467723 13.376839,0.467723 l 7.577092,-13.657474 4.77076,19.737855 13.563928,-9.447977 9.167347,4.95785 1.964431,-12.909119 10.470801,8.616453 9.10687,-4.253429 c 0,0 27.75576,29.780659 30.56209,33.148254 2.80633,3.367596 5.51912,10.196333 -2.05797,15.808992 -7.5771,5.612659 -34.7985,13.096208 -38.07255,15.902537 -3.27405,2.80633 0.56127,5.89329 8.69962,10.28988 8.13836,4.39658 0.74836,9.9157 -2.80633,11.88013 -3.55468,1.96443 -14.091577,4.23581 -19.550762,9.0738 -2.817806,2.49716 0.06935,4.42927 2.712786,6.36101 4.864306,3.55468 -5.519116,8.69962 -13.938105,10.57051 -8.418991,1.87089 -11.131777,1.59025 -13.938107,-4.39658 -2.806329,-5.98684 -8.826078,-7.88509 -13.283294,-8.88671 -8.325446,-1.87089 -4.770761,-5.14494 -0.65481,-10.57051 4.115951,-5.42558 0.561266,-7.76418 -4.30304,-10.28988 -4.864304,-2.5257 -18.428234,-5.14494 -22.357095,-7.85772 -3.928862,-2.71279 -8.231902,-4.11596 1.122532,-9.354438 9.354433,-5.238483 7.819559,-5.813055 7.951268,-5.799749 1.091406,0.110262 13.738699,1.838601 13.684871,1.963944 -0.809703,1.885488 21.929262,10.891353 26.985191,9.805613 8.197854,-3.235423 -0.89534,-4.393103 -3.422727,-4.755678 -14.365803,-2.060898 -21.968863,-6.484435 -23.491616,-5.120293 -0.09218,0.08258 -13.694762,-1.892612 -13.694762,-1.892612 0,0 -0.748755,-3.15344 -7.603196,-3.765444 C 21.175872,87.160621 10.307367,83.467154 7.6706353,81.944836 5.2067585,80.522316 -3.2354883,74.422724 7.2964579,63.890778 17.845026,53.34221 60.990905,6.454559 60.990905,6.454559 Z"
         id="path42"
         sodipodi:nodetypes="cscccssssccccccccsssssssssssssssscsscsssc"
         inkscape:label="inkscp01" /><path
         style="fill:#000000;fill-opacity:1;fill-rule:evenodd;stroke:#000000;stroke-width:0.423;stroke-linejoin:bevel;stroke-miterlimit:0;stroke-opacity:0"
         d="m 122.91725,115.80789 c 1.87089,-5.98685 4.39659,-7.39001 12.25431,-6.92229 7.85772,0.46772 8.41899,5.8933 7.48355,6.92229 -0.93545,1.02898 -6.7352,3.27404 -13.18975,2.15151 -6.45456,-1.12253 -6.54811,-2.15151 -6.54811,-2.15151 z"
         id="path43"
         sodipodi:nodetypes="csssc"
         inkscape:label="inkscp02" /><path
         style="fill:#000000;fill-opacity:1;fill-rule:evenodd;stroke:#000000;stroke-width:0.423;stroke-linejoin:bevel;stroke-miterlimit:0;stroke-opacity:0"
         d="m 120.20447,121.60763 c -2.43215,3.08697 -3.46114,5.23849 -1.49671,7.01583 1.96443,1.77734 7.29646,2.33861 8.60608,0.37417 1.30962,-1.96443 -4.11595,-7.01582 -5.79975,-7.29645 -1.6838,-0.28064 -1.30962,-0.0935 -1.30962,-0.0935 z"
         id="path44"
         inkscape:label="inkscp03" /><path
         style="fill:#000000;fill-opacity:1;fill-rule:evenodd;stroke:#000000;stroke-width:0.423;stroke-linejoin:bevel;stroke-miterlimit:0;stroke-opacity:0"
         d="m 46.772165,123.29143 c 0,0 -3.835315,-5.23848 -10.757598,-1.77734 -6.92228,3.46114 -6.548101,6.17393 -4.77076,8.13836 1.777344,1.96443 6.534524,3.80717 10.664055,1.12253 5.071197,-3.29682 4.864303,-7.48355 4.864303,-7.48355 z"
         id="path45"
         sodipodi:nodetypes="csssc"
         inkscape:label="inkscp04" /></g><path
       style="display:none;fill:#000000;fill-opacity:1;fill-rule:evenodd;stroke:#000000;stroke-width:0.423;stroke-linejoin:bevel;stroke-miterlimit:0;stroke-opacity:0"
       d="M 77.390624,0.79374999 C 106.75937,1.5875 148.16666,30.427083 148.96041,73.818749 149.75416,117.21042 115.09251,148.35713 75.803124,148.69583 29.765625,149.0927 0.17910533,109.04478 0.97281382,79.815892 0.9770036,79.661601 25.954731,79.644052 25.948885,79.697473 c -0.303596,2.774132 -1.961452,7.461178 6.97569,13.348962 6.326919,4.168171 20.918133,4.849397 27.268133,-4.278728 6.349999,-9.128125 -2.645834,-18.520833 -2.645834,-18.520833 0,0 -7.9375,-7.672916 -7.805208,-11.244791 0.132292,-3.571875 4.907049,-8.018863 10.054167,-6.879167 9.7043,2.148766 16.007291,10.583333 16.007291,10.583333 0,0 -5.027083,19.579167 -6.217708,27.516667 -1.190625,7.937499 -2.513542,26.987494 -14.816667,33.469794 -5.763551,3.03671 -7.9375,0.13229 -4.497916,-3.30729 2.517021,-2.51702 2.333117,-4.72026 0.132291,-7.27605 -4.101041,-4.76249 -12.672121,-1.0231 -12.170832,6.74688 0.529166,8.20209 8.105837,9.09225 13.361457,8.20208 7.828211,-1.3259 17.4625,-5.42396 24.870833,-18.78541 7.408334,-13.361463 12.567709,-41.407296 12.567709,-41.407296 0,0 10.054166,2.116667 18.256249,-3.439583 8.20208,-5.55625 5.42396,-8.995833 3.43958,-11.244792 -1.98437,-2.248958 -8.59895,-0.264583 -8.20208,3.307292 0.39688,3.571875 4.49792,3.704167 0.79375,6.746875 -3.704166,3.042708 -12.435416,2.645833 -13.361458,1.984375 -0.926041,-0.661458 3.042708,-30.823958 14.287498,-33.866666 11.24479,-3.042709 5.95067,4.008007 5.29167,5.953125 -1.46461,4.322983 4.9684,9.373904 9.92187,3.836458 6.80061,-7.602345 -3.30729,-11.509375 -5.68854,-12.170833 -2.38125,-0.661459 -11.56273,-4.17169 -23.044198,4.95899 -10.781437,8.57398 -13.287034,23.400014 -13.600591,25.468093 -0.123579,0.815071 -8.334375,-8.995834 -16.271875,-10.980209 -7.9375,-1.984375 -18.785417,1.5875 -22.092708,10.847917 -3.307292,9.260416 6.085416,18.785416 10.31875,23.283333 4.233333,4.497917 -3.704167,11.641666 -9.789583,10.054167 -6.085417,-1.5875 -5.027084,-3.836459 -3.175,-8.598959 C 37.967708,79.242707 28.938359,72.000122 25.959889,79.64027 25.933919,79.70689 0.9603524,79.877554 0.95911459,79.763606 0.73521865,59.152606 7.1437499,0.79374999 77.390624,0.79374999 Z"
       id="path46"
       sodipodi:nodetypes="csssssscsscssssssscssssssssssssssssssc"
       inkscape:label="synfony" /><path
       style="fill:#000000;fill-opacity:1;fill-rule:evenodd;stroke:#000000;stroke-width:0;stroke-linecap:round;stroke-linejoin:round;stroke-miterlimit:0;stroke-dasharray:none;stroke-opacity:0"
       d="m 72.495832,15.08125 c 0,0 -26.021097,-0.700206 -45.867601,11.590763 C 6.6388854,39.051445 1.7998793,54.796469 1.0101843,75.551169 -0.4843479,114.83034 21.819365,137.44164 71.305207,136.92187 117.31544,136.4386 148.96041,136.525 148.96041,136.525 L 73.107681,16.10651 72.694269,25.185025 136.525,129.91042 H 73.686458 l -1.003537,-104.813751 0.429999,-8.990021 -0.622224,-0.991214 -5.940065,6.91142 c 0,0 0.365955,108.332946 -0.188951,108.273746 C 33.557766,126.80078 7.8973575,115.71445 8.325446,77.735341 8.5687759,56.14762 14.873548,41.907862 30.963174,32.459883 46.004153,23.62768 66.542707,22.026562 66.542707,22.026562 Z"
       id="path47"
       sodipodi:nodetypes="cssscccccccccssscc" /></g></svg>
